<svg id="SvgjsSvg1001" width="288" height="288" xmlns="http://www.w3.org/2000/svg" version="1.1" xmlns:xlink="http://www.w3.org/1999/xlink" xmlns:svgjs="http://svgjs.com/svgjs"><defs id="SvgjsDefs1002"></defs><g id="SvgjsG1008" transform="matrix(1,0,0,1,0,0)"><svg xmlns="http://www.w3.org/2000/svg" width="288" height="288" viewBox="0 0 20 20"><path fill="#4bcdde" fill-rule="evenodd" d="M144 7339h-4v-6.999c0-1.92-.847-2.991-2.366-2.991-1.653 0-2.634 1.116-2.634 2.991V7339h-4v-13h4v1.462s1.255-2.202 4.083-2.202c2.829 0 4.917 1.726 4.917 5.298V7339zm-17.558-15.079a2.451 2.451 0 0 1-2.442-2.461 2.451 2.451 0 0 1 2.442-2.46 2.451 2.451 0 0 1 2.441 2.46 2.45 2.45 0 0 1-2.441 2.461zM124 7339h5v-13h-5v13z" transform="translate(-124 -7319)" class="color000 svgShape"></path></svg></g></svg>